<?plantuml 1.2026.2?><svg xmlns="http://www.w3.org/2000/svg" xmlns:xlink="http://www.w3.org/1999/xlink" contentStyleType="text/css" data-diagram-type="CLASS" height="390px" preserveAspectRatio="none" style="width:571px;height:390px;background:#FFFFFF;" version="1.1" viewBox="0 0 571 390" width="571px" zoomAndPan="magnify"><title>US211: Group Airports by Country - Class Diagram</title><defs/><g><g class="title" data-source-line="1"><text fill="#000000" font-family="sans-serif" font-size="14" font-weight="bold" lengthAdjust="spacing" textLength="369.1475" x="93.9263" y="23.5352">US211: Group Airports by Country - Class Diagram</text></g><!--cluster Airport Aggregate--><g class="cluster" data-qualified-name="Airport Aggregate" data-source-line="3" id="ent0002"><path d="M8.5,43.4883 L140.2852,43.4883 A3.75,3.75 0 0 1 142.7852,45.9883 L149.7852,65.9766 L561.5,65.9766 A2.5,2.5 0 0 1 564,68.4766 L564,381.1583 A2.5,2.5 0 0 1 561.5,383.6583 L8.5,383.6583 A2.5,2.5 0 0 1 6,381.1583 L6,45.9883 A2.5,2.5 0 0 1 8.5,43.4883" fill="none" style="stroke:#000000;stroke-width:1.5;"/><line style="stroke:#000000;stroke-width:1.5;" x1="6" x2="149.7852" y1="65.9766" y2="65.9766"/><text fill="#000000" font-family="sans-serif" font-size="14" font-weight="bold" lengthAdjust="spacing" textLength="130.7852" x="10" y="59.0234">Airport Aggregate</text></g><!--class Airport--><g class="entity" data-qualified-name="Airport Aggregate.Airport" data-source-line="4" id="ent0003"><rect fill="#F1F1F1" height="139.0625" rx="2.5" ry="2.5" style="stroke:#181818;stroke-width:0.5;" width="165.4053" x="22.3" y="228.5983"/><ellipse cx="76.8474" cy="248.9088" fill="#ADD1B2" rx="11" ry="11" style="stroke:#181818;stroke-width:1;"/><path d="M79.8205,254.5519 Q79.2395,254.8507 78.6003,255.0001 Q77.9611,255.1496 77.2556,255.1496 Q74.7487,255.1496 73.4289,253.4977 Q72.1091,251.8458 72.1091,248.7247 Q72.1091,245.5954 73.4289,243.9435 Q74.7487,242.2916 77.2556,242.2916 Q77.9611,242.2916 78.6086,242.4411 Q79.2561,242.5905 79.8205,242.8893 L79.8205,245.612 Q79.1896,245.0309 78.5961,244.7611 Q78.0026,244.4913 77.3718,244.4913 Q76.0271,244.4913 75.3422,245.558 Q74.6574,246.6246 74.6574,248.7247 Q74.6574,250.8165 75.3422,251.8832 Q76.0271,252.9498 77.3718,252.9498 Q78.0026,252.9498 78.5961,252.6801 Q79.1896,252.4103 79.8205,251.8292 Z " fill="#000000"/><text fill="#000000" font-family="sans-serif" font-size="12" font-style="italic" lengthAdjust="spacing" textLength="36.7148" x="102.8952" y="245.1998">&#171;root&#187;</text><text fill="#000000" font-family="sans-serif" font-size="14" lengthAdjust="spacing" textLength="47.8105" x="97.3474" y="261.2663">Airport</text><line style="stroke:#181818;stroke-width:0.5;" x1="23.3" x2="186.7053" y1="269.2194" y2="269.2194"/><g data-visibility-modifier="PRIVATE_FIELD"><rect fill="none" height="6" style="stroke:#C82930;stroke-width:1;" width="6" x="30.3" y="279.9635"/></g><text fill="#000000" font-family="sans-serif" font-size="14" lengthAdjust="spacing" textLength="108.4727" x="42.3" y="286.7545">iataCode: String</text><g data-visibility-modifier="PRIVATE_FIELD"><rect fill="none" height="6" style="stroke:#C82930;stroke-width:1;" width="6" x="30.3" y="296.4518"/></g><text fill="#000000" font-family="sans-serif" font-size="14" lengthAdjust="spacing" textLength="86.1191" x="42.3" y="303.2428">name: String</text><g data-visibility-modifier="PRIVATE_FIELD"><rect fill="none" height="6" style="stroke:#C82930;stroke-width:1;" width="6" x="30.3" y="312.9401"/></g><text fill="#000000" font-family="sans-serif" font-size="14" lengthAdjust="spacing" textLength="72.5977" x="42.3" y="319.7311">city: String</text><g data-visibility-modifier="PRIVATE_FIELD"><rect fill="none" height="6" style="stroke:#C82930;stroke-width:1;" width="6" x="30.3" y="329.4284"/></g><text fill="#000000" font-family="sans-serif" font-size="14" lengthAdjust="spacing" textLength="100.2559" x="42.3" y="336.2194">country: String</text><g data-visibility-modifier="PRIVATE_FIELD"><rect fill="none" height="6" style="stroke:#C82930;stroke-width:1;" width="6" x="30.3" y="345.9166"/></g><text fill="#000000" font-family="sans-serif" font-size="14" lengthAdjust="spacing" textLength="139.4053" x="42.3" y="352.7077">status: AirportStatus</text><line style="stroke:#181818;stroke-width:0.5;" x1="23.3" x2="186.7053" y1="359.6608" y2="359.6608"/></g><!--class EnhancedAirportService--><g class="entity" data-qualified-name="Airport Aggregate.EnhancedAirportService" data-source-line="12" id="ent0004"><rect fill="#F1F1F1" height="73.1094" rx="2.5" ry="2.5" style="stroke:#181818;stroke-width:0.5;" width="379.7666" x="95.12" y="78.4883"/><ellipse cx="200.5985" cy="98.7988" fill="#ADD1B2" rx="11" ry="11" style="stroke:#181818;stroke-width:1;"/><path d="M203.5717,104.4419 Q202.9906,104.7407 202.3514,104.8901 Q201.7123,105.0396 201.0067,105.0396 Q198.4999,105.0396 197.1801,103.3877 Q195.8602,101.7358 195.8602,98.6147 Q195.8602,95.4854 197.1801,93.8335 Q198.4999,92.1816 201.0067,92.1816 Q201.7123,92.1816 202.3597,92.3311 Q203.0072,92.4805 203.5717,92.7793 L203.5717,95.502 Q202.9408,94.9209 202.3473,94.6511 Q201.7538,94.3813 201.1229,94.3813 Q199.7782,94.3813 199.0934,95.448 Q198.4086,96.5146 198.4086,98.6147 Q198.4086,100.7065 199.0934,101.7732 Q199.7782,102.8398 201.1229,102.8398 Q201.7538,102.8398 202.3473,102.5701 Q202.9408,102.3003 203.5717,101.7192 Z " fill="#000000"/><text fill="#000000" font-family="sans-serif" font-size="12" font-style="italic" lengthAdjust="spacing" textLength="102.0469" x="250.2299" y="95.0898">&#171;Domain Service&#187;</text><text fill="#000000" font-family="sans-serif" font-size="14" lengthAdjust="spacing" textLength="160.3096" x="221.0985" y="111.1563">EnhancedAirportService</text><line style="stroke:#181818;stroke-width:0.5;" x1="96.12" x2="473.8866" y1="119.1094" y2="119.1094"/><line style="stroke:#181818;stroke-width:1;" x1="96.12" x2="473.8866" y1="127.1094" y2="127.1094"/><g data-visibility-modifier="PUBLIC_METHOD"><ellipse cx="106.12" cy="140.8535" fill="#84BE84" rx="3" ry="3" style="stroke:#038048;stroke-width:1;"/></g><text fill="#000000" font-family="sans-serif" font-size="14" lengthAdjust="spacing" textLength="353.7666" x="115.12" y="144.6445">getAirportsByCountry(String country): List&lt;Airport&gt;</text></g><!--class AirportRepository--><g class="entity" data-qualified-name="Airport Aggregate.AirportRepository" data-source-line="17" id="ent0005"><rect fill="#F1F1F1" height="64.4883" rx="2.5" ry="2.5" style="stroke:#181818;stroke-width:0.5;" width="325.3184" x="222.34" y="265.8783"/><ellipse cx="320.7809" cy="281.8783" fill="#B4A7E5" rx="11" ry="11" style="stroke:#181818;stroke-width:1;"/><path d="M316.7087,277.6434 L316.7087,275.4852 L324.088,275.4852 L324.088,277.6434 L321.6227,277.6434 L321.6227,285.7201 L324.088,285.7201 L324.088,287.8783 L316.7087,287.8783 L316.7087,285.7201 L319.174,285.7201 L319.174,277.6434 Z " fill="#000000"/><text fill="#000000" font-family="sans-serif" font-size="14" font-style="italic" lengthAdjust="spacing" textLength="119.9365" x="341.2809" y="287.1693">AirportRepository</text><line style="stroke:#181818;stroke-width:0.5;" x1="223.34" x2="546.6584" y1="297.8783" y2="297.8783"/><line style="stroke:#181818;stroke-width:1;" x1="223.34" x2="546.6584" y1="305.8783" y2="305.8783"/><g data-visibility-modifier="PUBLIC_METHOD"><ellipse cx="233.34" cy="319.6224" fill="#84BE84" rx="3" ry="3" style="stroke:#038048;stroke-width:1;"/></g><text fill="#000000" font-family="sans-serif" font-size="14" lengthAdjust="spacing" textLength="299.3184" x="242.34" y="323.4134">List&lt;Airport&gt; findByCountry(String country)</text></g><!--link EnhancedAirportService to Airport--><g class="link" data-entity-1="ent0004" data-entity-2="ent0003" data-link-type="dependency" data-source-line="23" id="lnk6"><path codeLine="23" d="M249.44,151.8183 C227.72,173.6683 203.4504,198.0834 177.5104,224.1734" fill="none" id="EnhancedAirportService-to-Airport" style="stroke:#181818;stroke-width:1;stroke-dasharray:7,7;"/><polygon fill="#181818" points="173.28,228.4283,182.4622,224.8663,176.8053,224.8826,176.789,219.2257,173.28,228.4283" style="stroke:#181818;stroke-width:1;"/><polygon fill="#000000" points="217.8949,193.7995,226.3561,189.4568,222.1876,185.3128,217.8949,193.7995" style="stroke:#000000;stroke-width:1;"/><text fill="#000000" font-family="sans-serif" font-size="13" lengthAdjust="spacing" textLength="36.3467" x="230.42" y="195.1666">filters</text></g><!--link EnhancedAirportService to AirportRepository--><g class="link" data-entity-1="ent0004" data-entity-2="ent0005" data-link-type="dependency" data-source-line="24" id="lnk7"><path codeLine="24" d="M304.76,151.8183 C323.09,185.0083 347.1998,228.6758 364.7198,260.4058" fill="none" id="EnhancedAirportService-to-AirportRepository" style="stroke:#181818;stroke-width:1;stroke-dasharray:7,7;"/><polygon fill="#181818" points="367.62,265.6583,366.7713,255.8461,365.2032,261.2812,359.768,259.713,367.62,265.6583" style="stroke:#181818;stroke-width:1;"/><polygon fill="#000000" points="336.4269,194.6306,334.6274,185.2918,329.4819,188.1331,336.4269,194.6306" style="stroke:#000000;stroke-width:1;"/><text fill="#000000" font-family="sans-serif" font-size="13" lengthAdjust="spacing" textLength="28.5645" x="343.01" y="195.1666">uses</text></g><?plantuml-src ZP71IiGm48RlVOfXJufqOJs64bYxuiMJnGSOszauR9kKP2eKyTsDtLIwQCNS9ly_-R-P24jBy5pTxdOA7hmRUjYpxvsN02yZb6wmuaV8eMmn13Wm6ezTblLOdz0GR98RziPuCYYqWVSCugcdXbak2k-SQ9t4T79W52nTGmegyMpDfMgnMr5gbd55EIF_BWP16OAQiQgfd2mVsOBwthwYhQcPRUJVkAOunC5ro1RInOznydnPte0XcRTvDwPTNfsvPivh1OySf4W-lOHXA-IF69EJ-aIz2omk_iZVmHTFmf5jivgV0cFaojJRhVx-HXNVQYDK0FqF-m9NmH3eg-iJ?></g></svg>