<svg xmlns="http://www.w3.org/2000/svg" xmlns:xlink="http://www.w3.org/1999/xlink" contentStyleType="text/css" data-diagram-type="SEQUENCE" height="599px" preserveAspectRatio="none" style="width:1399px;height:599px;background:#FFFFFF;" version="1.1" viewBox="0 0 1399 599" width="1399px" zoomAndPan="magnify"><title>US104 - Search for Aircraft &#8212; Sequence Diagram</title><defs/><g><text fill="#000000" font-family="sans-serif" font-size="14" font-weight="bold" lengthAdjust="spacing" textLength="385.0342" x="508.1211" y="27.9951">US104 - Search for Aircraft &#8212; Sequence Diagram</text><g><title>AircraftController</title><rect fill="#FFFFFF" height="344.3984" style="stroke:#181818;stroke-width:1;" width="10" x="490.7866" y="149.7266"/></g><g><title>AircraftController</title><rect fill="#FFFFFF" height="248.1953" style="stroke:#181818;stroke-width:1;" width="10" x="495.7866" y="186.8594"/></g><g><title>SearchAircraftUseCase</title><rect fill="#FFFFFF" height="145.6641" style="stroke:#181818;stroke-width:1;" width="10" x="767.0459" y="245.125"/></g><g><title>SearchAircraftService</title><rect fill="#FFFFFF" height="87.3984" style="stroke:#181818;stroke-width:1;" width="10" x="1043.415" y="274.2578"/></g><g><title>AircraftRepository</title><rect fill="#FFFFFF" height="29.1328" style="stroke:#181818;stroke-width:1;" width="10" x="1310.9038" y="303.3906"/></g><rect fill="none" height="295.2656" style="stroke:#000000;stroke-width:1.5;" width="1382.2764" x="10" y="206.8594"/><g><title>ATCC</title><rect fill="#000000" fill-opacity="0.00000" height="400.5313" width="8" x="37.8398" y="118.5938"/><line style="stroke:#181818;stroke-width:0.5;stroke-dasharray:5,5;" x1="41" x2="41" y1="118.5938" y2="519.125"/></g><g><title>AircraftController</title><rect fill="#000000" fill-opacity="0.00000" height="400.5313" width="8" x="491.7866" y="118.5938"/><line style="stroke:#181818;stroke-width:0.5;stroke-dasharray:5,5;" x1="495.3638" x2="495.3638" y1="118.5938" y2="519.125"/></g><g><title>SearchAircraftUseCase</title><rect fill="#000000" fill-opacity="0.00000" height="400.5313" width="8" x="768.0459" y="118.5938"/><line style="stroke:#181818;stroke-width:0.5;stroke-dasharray:5,5;" x1="771.7988" x2="771.7988" y1="118.5938" y2="519.125"/></g><g><title>SearchAircraftService</title><rect fill="#000000" fill-opacity="0.00000" height="400.5313" width="8" x="1044.415" y="118.5938"/><line style="stroke:#181818;stroke-width:0.5;stroke-dasharray:5,5;" x1="1047.5054" x2="1047.5054" y1="118.5938" y2="519.125"/></g><g><title>AircraftRepository</title><rect fill="#000000" fill-opacity="0.00000" height="400.5313" width="8" x="1311.9038" y="118.5938"/><line style="stroke:#181818;stroke-width:0.5;stroke-dasharray:5,5;" x1="1315.5313" x2="1315.5313" y1="118.5938" y2="519.125"/></g><g class="participant participant-head" data-participant="ATCC"><text fill="#000000" font-family="sans-serif" font-size="14" lengthAdjust="spacing" textLength="37.6797" x="20" y="115.292">ATCC</text><ellipse cx="41.8398" cy="50.7969" fill="#E2E2F0" rx="8" ry="8" style="stroke:#181818;stroke-width:0.5;"/><path d="M41.8398,58.7969 L41.8398,85.7969 M28.8398,66.7969 L54.8398,66.7969 M41.8398,85.7969 L28.8398,100.7969 M41.8398,85.7969 L54.8398,100.7969" fill="none" style="stroke:#181818;stroke-width:0.5;"/></g><g class="participant participant-tail" data-participant="ATCC"><text fill="#000000" font-family="sans-serif" font-size="14" lengthAdjust="spacing" textLength="37.6797" x="20" y="531.1201">ATCC</text><ellipse cx="41.8398" cy="542.9219" fill="#E2E2F0" rx="8" ry="8" style="stroke:#181818;stroke-width:0.5;"/><path d="M41.8398,550.9219 L41.8398,577.9219 M28.8398,558.9219 L54.8398,558.9219 M41.8398,577.9219 L28.8398,592.9219 M41.8398,577.9219 L54.8398,592.9219" fill="none" style="stroke:#181818;stroke-width:0.5;"/></g><g class="participant participant-head" data-participant="Ctrl"><rect fill="#E2E2F0" height="30.2969" rx="2.5" ry="2.5" style="stroke:#181818;stroke-width:0.5;" width="134.8457" x="428.3638" y="87.2969"/><text fill="#000000" font-family="sans-serif" font-size="14" lengthAdjust="spacing" textLength="120.8457" x="435.3638" y="107.292">AircraftController</text></g><g class="participant participant-tail" data-participant="Ctrl"><rect fill="#E2E2F0" height="30.2969" rx="2.5" ry="2.5" style="stroke:#181818;stroke-width:0.5;" width="134.8457" x="428.3638" y="518.125"/><text fill="#000000" font-family="sans-serif" font-size="14" lengthAdjust="spacing" textLength="120.8457" x="435.3638" y="538.1201">AircraftController</text></g><g class="participant participant-head" data-participant="UC"><rect fill="#E2E2F0" height="30.2969" rx="2.5" ry="2.5" style="stroke:#181818;stroke-width:0.5;" width="174.4941" x="684.7988" y="87.2969"/><text fill="#000000" font-family="sans-serif" font-size="14" lengthAdjust="spacing" textLength="160.4941" x="691.7988" y="107.292">SearchAircraftUseCase</text></g><g class="participant participant-tail" data-participant="UC"><rect fill="#E2E2F0" height="30.2969" rx="2.5" ry="2.5" style="stroke:#181818;stroke-width:0.5;" width="174.4941" x="684.7988" y="518.125"/><text fill="#000000" font-family="sans-serif" font-size="14" lengthAdjust="spacing" textLength="160.4941" x="691.7988" y="538.1201">SearchAircraftUseCase</text></g><g class="participant participant-head" data-participant="Service"><rect fill="#E2E2F0" height="30.2969" rx="2.5" ry="2.5" style="stroke:#181818;stroke-width:0.5;" width="165.8193" x="965.5054" y="87.2969"/><text fill="#000000" font-family="sans-serif" font-size="14" lengthAdjust="spacing" textLength="151.8193" x="972.5054" y="107.292">SearchAircraftService</text></g><g class="participant participant-tail" data-participant="Service"><rect fill="#E2E2F0" height="30.2969" rx="2.5" ry="2.5" style="stroke:#181818;stroke-width:0.5;" width="165.8193" x="965.5054" y="518.125"/><text fill="#000000" font-family="sans-serif" font-size="14" lengthAdjust="spacing" textLength="151.8193" x="972.5054" y="538.1201">SearchAircraftService</text></g><g class="participant participant-head" data-participant="Repo"><text fill="#000000" font-family="sans-serif" font-size="14" lengthAdjust="spacing" textLength="126.7451" x="1249.5313" y="115.292">AircraftRepository</text><path d="M1297.9038,66.2969 C1297.9038,56.2969 1315.9038,56.2969 1315.9038,56.2969 C1315.9038,56.2969 1333.9038,56.2969 1333.9038,66.2969 L1333.9038,92.2969 C1333.9038,102.2969 1315.9038,102.2969 1315.9038,102.2969 C1315.9038,102.2969 1297.9038,102.2969 1297.9038,92.2969 L1297.9038,66.2969" fill="#E2E2F0" style="stroke:#181818;stroke-width:0.5;"/><path d="M1297.9038,66.2969 C1297.9038,76.2969 1315.9038,76.2969 1315.9038,76.2969 C1315.9038,76.2969 1333.9038,76.2969 1333.9038,66.2969" fill="none" style="stroke:#181818;stroke-width:0.5;"/></g><g class="participant participant-tail" data-participant="Repo"><text fill="#000000" font-family="sans-serif" font-size="14" lengthAdjust="spacing" textLength="126.7451" x="1249.5313" y="531.1201">AircraftRepository</text><path d="M1297.9038,544.4219 C1297.9038,534.4219 1315.9038,534.4219 1315.9038,534.4219 C1315.9038,534.4219 1333.9038,534.4219 1333.9038,544.4219 L1333.9038,570.4219 C1333.9038,580.4219 1315.9038,580.4219 1315.9038,580.4219 C1315.9038,580.4219 1297.9038,580.4219 1297.9038,570.4219 L1297.9038,544.4219" fill="#E2E2F0" style="stroke:#181818;stroke-width:0.5;"/><path d="M1297.9038,544.4219 C1297.9038,554.4219 1315.9038,554.4219 1315.9038,554.4219 C1315.9038,554.4219 1333.9038,554.4219 1333.9038,544.4219" fill="none" style="stroke:#181818;stroke-width:0.5;"/></g><g><title>AircraftController</title><rect fill="#FFFFFF" height="344.3984" style="stroke:#181818;stroke-width:1;" width="10" x="490.7866" y="149.7266"/></g><g><title>AircraftController</title><rect fill="#FFFFFF" height="248.1953" style="stroke:#181818;stroke-width:1;" width="10" x="495.7866" y="186.8594"/></g><g><title>SearchAircraftUseCase</title><rect fill="#FFFFFF" height="145.6641" style="stroke:#181818;stroke-width:1;" width="10" x="767.0459" y="245.125"/></g><g><title>SearchAircraftService</title><rect fill="#FFFFFF" height="87.3984" style="stroke:#181818;stroke-width:1;" width="10" x="1043.415" y="274.2578"/></g><g><title>AircraftRepository</title><rect fill="#FFFFFF" height="29.1328" style="stroke:#181818;stroke-width:1;" width="10" x="1310.9038" y="303.3906"/></g><g class="message" data-participant-1="ATCC" data-participant-2="Ctrl"><polygon fill="#181818" points="478.7866,145.7266,488.7866,149.7266,478.7866,153.7266,482.7866,149.7266" style="stroke:#181818;stroke-width:1;"/><line style="stroke:#181818;stroke-width:1;" x1="41.8398" x2="484.7866" y1="149.7266" y2="149.7266"/><text fill="#000000" font-family="sans-serif" font-size="13" font-weight="bold" lengthAdjust="spacing" textLength="9.0454" x="48.8398" y="144.6606">1</text><text fill="#000000" font-family="sans-serif" font-size="13" lengthAdjust="spacing" textLength="416.9014" x="61.8853" y="144.6606">GET /aircrafts?model={model}&amp;status={status}&amp;year={year}</text></g><g class="message" data-participant-1="Ctrl" data-participant-2="Ctrl"><line style="stroke:#181818;stroke-width:1;" x1="500.7866" x2="547.7866" y1="173.8594" y2="173.8594"/><line style="stroke:#181818;stroke-width:1;" x1="547.7866" x2="547.7866" y1="173.8594" y2="186.8594"/><line style="stroke:#181818;stroke-width:1;" x1="506.7866" x2="547.7866" y1="186.8594" y2="186.8594"/><polygon fill="#181818" points="516.7866,182.8594,506.7866,186.8594,516.7866,190.8594,512.7866,186.8594" style="stroke:#181818;stroke-width:1;"/><text fill="#000000" font-family="sans-serif" font-size="13" font-weight="bold" lengthAdjust="spacing" textLength="9.0454" x="512.7866" y="168.7935">2</text><text fill="#000000" font-family="sans-serif" font-size="13" lengthAdjust="spacing" textLength="229.2139" x="525.832" y="168.7935">extract username &amp; roles from JWT</text></g><path d="M10,206.8594 L74.4429,206.8594 L74.4429,213.9922 L64.4429,223.9922 L10,223.9922 L10,206.8594" fill="#EEEEEE" style="stroke:#000000;stroke-width:1.5;"/><rect fill="none" height="295.2656" style="stroke:#000000;stroke-width:1.5;" width="1382.2764" x="10" y="206.8594"/><text fill="#000000" font-family="sans-serif" font-size="13" font-weight="bold" lengthAdjust="spacing" textLength="19.4429" x="25" y="219.9263">alt</text><text fill="#000000" font-family="sans-serif" font-size="11" font-weight="bold" lengthAdjust="spacing" textLength="232.751" x="89.4429" y="219.0698">[User has authorization (Role: ATCC)]</text><g class="message" data-participant-1="Ctrl" data-participant-2="UC"><polygon fill="#181818" points="755.0459,241.125,765.0459,245.125,755.0459,249.125,759.0459,245.125" style="stroke:#181818;stroke-width:1;"/><line style="stroke:#181818;stroke-width:1;" x1="505.7866" x2="761.0459" y1="245.125" y2="245.125"/><text fill="#000000" font-family="sans-serif" font-size="13" font-weight="bold" lengthAdjust="spacing" textLength="9.0454" x="512.7866" y="240.0591">3</text><text fill="#000000" font-family="sans-serif" font-size="13" lengthAdjust="spacing" textLength="188.2715" x="525.832" y="240.0591">execute(model, status, year)</text></g><g class="message" data-participant-1="UC" data-participant-2="Service"><polygon fill="#181818" points="1031.415,270.2578,1041.415,274.2578,1031.415,278.2578,1035.415,274.2578" style="stroke:#181818;stroke-width:1;"/><line style="stroke:#181818;stroke-width:1;" x1="777.0459" x2="1037.415" y1="274.2578" y2="274.2578"/><text fill="#000000" font-family="sans-serif" font-size="13" font-weight="bold" lengthAdjust="spacing" textLength="9.0454" x="784.0459" y="269.1919">4</text><text fill="#000000" font-family="sans-serif" font-size="13" lengthAdjust="spacing" textLength="234.3237" x="797.0913" y="269.1919">searchAircrafts(model, status, year)</text></g><g class="message" data-participant-1="Service" data-participant-2="Repo"><polygon fill="#181818" points="1298.9038,299.3906,1308.9038,303.3906,1298.9038,307.3906,1302.9038,303.3906" style="stroke:#181818;stroke-width:1;"/><line style="stroke:#181818;stroke-width:1;" x1="1053.415" x2="1304.9038" y1="303.3906" y2="303.3906"/><text fill="#000000" font-family="sans-serif" font-size="13" font-weight="bold" lengthAdjust="spacing" textLength="9.0454" x="1060.415" y="298.3247">5</text><text fill="#000000" font-family="sans-serif" font-size="13" lengthAdjust="spacing" textLength="225.4434" x="1073.4604" y="298.3247">findByCriteria(model, status, year)</text></g><g class="message" data-participant-1="Repo" data-participant-2="Service"><polygon fill="#181818" points="1064.415,328.5234,1054.415,332.5234,1064.415,336.5234,1060.415,332.5234" style="stroke:#181818;stroke-width:1;"/><line style="stroke:#181818;stroke-width:1;stroke-dasharray:2,2;" x1="1058.415" x2="1314.9038" y1="332.5234" y2="332.5234"/><text fill="#000000" font-family="sans-serif" font-size="13" font-weight="bold" lengthAdjust="spacing" textLength="9.0454" x="1070.415" y="327.4575">6</text><text fill="#000000" font-family="sans-serif" font-size="13" lengthAdjust="spacing" textLength="69.7798" x="1083.4604" y="327.4575">aircraftList</text></g><g class="message" data-participant-1="Service" data-participant-2="UC"><polygon fill="#181818" points="788.0459,357.6563,778.0459,361.6563,788.0459,365.6563,784.0459,361.6563" style="stroke:#181818;stroke-width:1;"/><line style="stroke:#181818;stroke-width:1;stroke-dasharray:2,2;" x1="782.0459" x2="1047.415" y1="361.6563" y2="361.6563"/><text fill="#000000" font-family="sans-serif" font-size="13" font-weight="bold" lengthAdjust="spacing" textLength="9.0454" x="794.0459" y="356.5903">7</text><text fill="#000000" font-family="sans-serif" font-size="13" lengthAdjust="spacing" textLength="114.1753" x="807.0913" y="356.5903">return aircraftList</text></g><g class="message" data-participant-1="UC" data-participant-2="Ctrl"><polygon fill="#181818" points="516.7866,386.7891,506.7866,390.7891,516.7866,394.7891,512.7866,390.7891" style="stroke:#181818;stroke-width:1;"/><line style="stroke:#181818;stroke-width:1;stroke-dasharray:2,2;" x1="510.7866" x2="771.0459" y1="390.7891" y2="390.7891"/><text fill="#000000" font-family="sans-serif" font-size="13" font-weight="bold" lengthAdjust="spacing" textLength="9.0454" x="522.7866" y="385.7231">8</text><text fill="#000000" font-family="sans-serif" font-size="13" lengthAdjust="spacing" textLength="114.1753" x="535.832" y="385.7231">return aircraftList</text></g><g class="message" data-participant-1="Ctrl" data-participant-2="ATCC"><polygon fill="#181818" points="52.8398,431.0547,42.8398,435.0547,52.8398,439.0547,48.8398,435.0547" style="stroke:#181818;stroke-width:1;"/><line style="stroke:#181818;stroke-width:1;stroke-dasharray:2,2;" x1="46.8398" x2="489.7866" y1="435.0547" y2="435.0547"/><text fill="#000000" font-family="sans-serif" font-size="13" font-weight="bold" lengthAdjust="spacing" textLength="9.0454" x="58.8398" y="422.4224">9</text><text fill="#000000" font-family="sans-serif" font-size="13" lengthAdjust="spacing" textLength="47.7026" x="71.8853" y="414.856">200 OK</text><text fill="#000000" font-family="sans-serif" font-size="13" lengthAdjust="spacing" textLength="376.3589" x="71.8853" y="429.9888">[ { registrationNumber, modelName, status, year... }, ... ]</text></g><line style="stroke:#000000;stroke-width:1;stroke-dasharray:2,2;" x1="10" x2="1392.2764" y1="444.0547" y2="444.0547"/><text fill="#000000" font-family="sans-serif" font-size="11" font-weight="bold" lengthAdjust="spacing" textLength="217.0459" x="15" y="454.2651">[User does not have authorization]</text><g class="message" data-participant-1="Ctrl" data-participant-2="ATCC"><polygon fill="#181818" points="52.8398,490.125,42.8398,494.125,52.8398,498.125,48.8398,494.125" style="stroke:#181818;stroke-width:1;"/><line style="stroke:#181818;stroke-width:1;stroke-dasharray:2,2;" x1="46.8398" x2="494.7866" y1="494.125" y2="494.125"/><text fill="#000000" font-family="sans-serif" font-size="13" font-weight="bold" lengthAdjust="spacing" textLength="18.0908" x="58.8398" y="481.4927">10</text><text fill="#000000" font-family="sans-serif" font-size="13" lengthAdjust="spacing" textLength="94.3262" x="80.9307" y="473.9263">403 Forbidden</text><text fill="#000000" font-family="sans-serif" font-size="13" lengthAdjust="spacing" textLength="345.5854" x="80.9307" y="489.0591">{ message: "Not authorized to perform this action" }</text></g><!--SRC=[VLFBZjD04BpFLxHoY7QbR0YmfqW1BUOX0GhI9XO7baF7xYGZsJEXfnqHB4lx4NmXNq9x72iA2kk3PsnNrTHKZR4IxwfoHMp4Ia6GBfvFRk465eISRM7j6UuiPunhWJ-Fl_NzZufSHl3MueQnD0PL0ZEnUnG2x_H59ieQt2sJP00Oe9sO7RBOpExGYNuwAYRU2VkY88x0HBWu1tOkUdWQAC504PicJo4Nn7kRTSZZtEGek5BwQVbxslbWrUmX0jj7OrgtSFCgce4fV7YtX6Tu98JNfS-fcDLnQ8P1KAemgxkn6HxKnAnkxuqnKU0aH3-5DHce0h73ac08kdKAi6PVmiUlIuE5W6wHOQjcDDMjP_iBnNe7L_SAdSOahmterOkdIPIch1AwYgv6qBaPGUlZsaHu6hTqJ48PuIojy0IpvoYzpKUvQ-loDuU4hH1Rl4njcKnIiOC-kyyso3-IlVzBoDxrAS3_wdLPA31MDuKNamby-VJWla6jf8tYEAOuZ-Ty1D7nN2iuTpqUZw4PGJjyDuOAFIcnZTnhISwBrhAdyrukBdyxUGdlFQzidfDxS3MK509kjBx1N5Lw0Sf1FEo8zHShGRPMEyzQqG4qXbp-5m00]--></g></svg>