<?plantuml 1.2026.2?><svg xmlns="http://www.w3.org/2000/svg" xmlns:xlink="http://www.w3.org/1999/xlink" contentStyleType="text/css" data-diagram-type="SEQUENCE" height="599px" preserveAspectRatio="none" style="width:1327px;height:599px;background:#FFFFFF;" version="1.1" viewBox="0 0 1327 599" width="1327px" zoomAndPan="magnify"><title>US204 - Top 5 Utilized Aircraft Models &#8212; Sequence Diagram</title><defs/><g><text fill="#000000" font-family="sans-serif" font-size="14" font-weight="bold" lengthAdjust="spacing" textLength="473.2246" x="428.1814" y="27.9951">US204 - Top 5 Utilized Aircraft Models &#8212; Sequence Diagram</text><g><title>AircraftModelController</title><rect fill="#FFFFFF" height="344.3984" style="stroke:#181818;stroke-width:1;" width="10" x="484.5396" y="149.7266"/></g><g><title>AircraftModelController</title><rect fill="#FFFFFF" height="248.1953" style="stroke:#181818;stroke-width:1;" width="10" x="489.5396" y="186.8594"/></g><g><title>TopUtilizedModelsUseCase</title><rect fill="#FFFFFF" height="145.6641" style="stroke:#181818;stroke-width:1;" width="10" x="760.7988" y="245.125"/></g><g><title>TopUtilizedModelsService</title><rect fill="#FFFFFF" height="87.3984" style="stroke:#181818;stroke-width:1;" width="10" x="968.4634" y="274.2578"/></g><g><title>AircraftModelRepository</title><rect fill="#FFFFFF" height="29.1328" style="stroke:#181818;stroke-width:1;" width="10" x="1218.1978" y="303.3906"/></g><rect fill="none" height="295.2656" style="stroke:#000000;stroke-width:1.5;" width="1310.5874" x="10" y="206.8594"/><g class="participant-lifeline" data-entity-uid="part1" data-qualified-name="BO" id="part1-lifeline"><g><title>Backoffice Operator</title><rect fill="#000000" fill-opacity="0.00000" height="400.5313" width="8" x="88.8633" y="118.5938"/><line style="stroke:#181818;stroke-width:0.5;stroke-dasharray:5,5;" x1="92" x2="92" y1="118.5938" y2="519.125"/></g></g><g class="participant-lifeline" data-entity-uid="part2" data-qualified-name="Ctrl" id="part2-lifeline"><g><title>AircraftModelController</title><rect fill="#000000" fill-opacity="0.00000" height="400.5313" width="8" x="485.5396" y="118.5938"/><line style="stroke:#181818;stroke-width:0.5;stroke-dasharray:5,5;" x1="489.0996" x2="489.0996" y1="118.5938" y2="519.125"/></g></g><g class="participant-lifeline" data-entity-uid="part3" data-qualified-name="UC" id="part3-lifeline"><g><title>TopUtilizedModelsUseCase</title><rect fill="#000000" fill-opacity="0.00000" height="400.5313" width="8" x="761.7988" y="118.5938"/><line style="stroke:#181818;stroke-width:0.5;stroke-dasharray:5,5;" x1="765.7979" x2="765.7979" y1="118.5938" y2="519.125"/></g></g><g class="participant-lifeline" data-entity-uid="part4" data-qualified-name="Service" id="part4-lifeline"><g><title>TopUtilizedModelsService</title><rect fill="#000000" fill-opacity="0.00000" height="400.5313" width="8" x="969.4634" y="118.5938"/><line style="stroke:#181818;stroke-width:0.5;stroke-dasharray:5,5;" x1="972.7998" x2="972.7998" y1="118.5938" y2="519.125"/></g></g><g class="participant-lifeline" data-entity-uid="part5" data-qualified-name="Repo" id="part5-lifeline"><g><title>AircraftModelRepository</title><rect fill="#000000" fill-opacity="0.00000" height="400.5313" width="8" x="1219.1978" y="118.5938"/><line style="stroke:#181818;stroke-width:0.5;stroke-dasharray:5,5;" x1="1222.8081" x2="1222.8081" y1="118.5938" y2="519.125"/></g></g><g class="participant participant-head" data-entity-uid="part1" data-qualified-name="BO" id="part1-head"><text fill="#000000" font-family="sans-serif" font-size="14" lengthAdjust="spacing" textLength="139.7266" x="20" y="115.292">Backoffice Operator</text><ellipse cx="92.8633" cy="50.7969" fill="#E2E2F0" rx="8" ry="8" style="stroke:#181818;stroke-width:0.5;"/><path d="M92.8633,58.7969 L92.8633,85.7969 M79.8633,66.7969 L105.8633,66.7969 M92.8633,85.7969 L79.8633,100.7969 M92.8633,85.7969 L105.8633,100.7969" fill="none" style="stroke:#181818;stroke-width:0.5;"/></g><g class="participant participant-tail" data-entity-uid="part1" data-qualified-name="BO" id="part1-tail"><text fill="#000000" font-family="sans-serif" font-size="14" lengthAdjust="spacing" textLength="139.7266" x="20" y="531.1201">Backoffice Operator</text><ellipse cx="92.8633" cy="542.9219" fill="#E2E2F0" rx="8" ry="8" style="stroke:#181818;stroke-width:0.5;"/><path d="M92.8633,550.9219 L92.8633,577.9219 M79.8633,558.9219 L105.8633,558.9219 M92.8633,577.9219 L79.8633,592.9219 M92.8633,577.9219 L105.8633,592.9219" fill="none" style="stroke:#181818;stroke-width:0.5;"/></g><g class="participant participant-head" data-entity-uid="part2" data-qualified-name="Ctrl" id="part2-head"><rect fill="#E2E2F0" height="30.2969" rx="2.5" ry="2.5" style="stroke:#181818;stroke-width:0.5;" width="176.8799" x="401.0996" y="87.2969"/><text fill="#000000" font-family="sans-serif" font-size="14" lengthAdjust="spacing" textLength="162.8799" x="408.0996" y="107.292">AircraftModelController</text></g><g class="participant participant-tail" data-entity-uid="part2" data-qualified-name="Ctrl" id="part2-tail"><rect fill="#E2E2F0" height="30.2969" rx="2.5" ry="2.5" style="stroke:#181818;stroke-width:0.5;" width="176.8799" x="401.0996" y="518.125"/><text fill="#000000" font-family="sans-serif" font-size="14" lengthAdjust="spacing" textLength="162.8799" x="408.0996" y="538.1201">AircraftModelController</text></g><g class="participant participant-head" data-entity-uid="part3" data-qualified-name="UC" id="part3-head"><rect fill="#E2E2F0" height="30.2969" rx="2.5" ry="2.5" style="stroke:#181818;stroke-width:0.5;" width="202.002" x="664.7979" y="87.2969"/><text fill="#000000" font-family="sans-serif" font-size="14" lengthAdjust="spacing" textLength="188.002" x="671.7979" y="107.292">TopUtilizedModelsUseCase</text></g><g class="participant participant-tail" data-entity-uid="part3" data-qualified-name="UC" id="part3-tail"><rect fill="#E2E2F0" height="30.2969" rx="2.5" ry="2.5" style="stroke:#181818;stroke-width:0.5;" width="202.002" x="664.7979" y="518.125"/><text fill="#000000" font-family="sans-serif" font-size="14" lengthAdjust="spacing" textLength="188.002" x="671.7979" y="538.1201">TopUtilizedModelsUseCase</text></g><g class="participant participant-head" data-entity-uid="part4" data-qualified-name="Service" id="part4-head"><rect fill="#E2E2F0" height="30.2969" rx="2.5" ry="2.5" style="stroke:#181818;stroke-width:0.5;" width="193.3271" x="876.7998" y="87.2969"/><text fill="#000000" font-family="sans-serif" font-size="14" lengthAdjust="spacing" textLength="179.3271" x="883.7998" y="107.292">TopUtilizedModelsService</text></g><g class="participant participant-tail" data-entity-uid="part4" data-qualified-name="Service" id="part4-tail"><rect fill="#E2E2F0" height="30.2969" rx="2.5" ry="2.5" style="stroke:#181818;stroke-width:0.5;" width="193.3271" x="876.7998" y="518.125"/><text fill="#000000" font-family="sans-serif" font-size="14" lengthAdjust="spacing" textLength="179.3271" x="883.7998" y="538.1201">TopUtilizedModelsService</text></g><g class="participant participant-head" data-entity-uid="part5" data-qualified-name="Repo" id="part5-head"><text fill="#000000" font-family="sans-serif" font-size="14" lengthAdjust="spacing" textLength="168.7793" x="1135.8081" y="115.292">AircraftModelRepository</text><path d="M1205.1978,66.2969 C1205.1978,56.2969 1223.1978,56.2969 1223.1978,56.2969 C1223.1978,56.2969 1241.1978,56.2969 1241.1978,66.2969 L1241.1978,92.2969 C1241.1978,102.2969 1223.1978,102.2969 1223.1978,102.2969 C1223.1978,102.2969 1205.1978,102.2969 1205.1978,92.2969 L1205.1978,66.2969" fill="#E2E2F0" style="stroke:#181818;stroke-width:0.5;"/><path d="M1205.1978,66.2969 C1205.1978,76.2969 1223.1978,76.2969 1223.1978,76.2969 C1223.1978,76.2969 1241.1978,76.2969 1241.1978,66.2969" fill="none" style="stroke:#181818;stroke-width:0.5;"/></g><g class="participant participant-tail" data-entity-uid="part5" data-qualified-name="Repo" id="part5-tail"><text fill="#000000" font-family="sans-serif" font-size="14" lengthAdjust="spacing" textLength="168.7793" x="1135.8081" y="531.1201">AircraftModelRepository</text><path d="M1205.1978,544.4219 C1205.1978,534.4219 1223.1978,534.4219 1223.1978,534.4219 C1223.1978,534.4219 1241.1978,534.4219 1241.1978,544.4219 L1241.1978,570.4219 C1241.1978,580.4219 1223.1978,580.4219 1223.1978,580.4219 C1223.1978,580.4219 1205.1978,580.4219 1205.1978,570.4219 L1205.1978,544.4219" fill="#E2E2F0" style="stroke:#181818;stroke-width:0.5;"/><path d="M1205.1978,544.4219 C1205.1978,554.4219 1223.1978,554.4219 1223.1978,554.4219 C1223.1978,554.4219 1241.1978,554.4219 1241.1978,544.4219" fill="none" style="stroke:#181818;stroke-width:0.5;"/></g><g><title>AircraftModelController</title><rect fill="#FFFFFF" height="344.3984" style="stroke:#181818;stroke-width:1;" width="10" x="484.5396" y="149.7266"/></g><g><title>AircraftModelController</title><rect fill="#FFFFFF" height="248.1953" style="stroke:#181818;stroke-width:1;" width="10" x="489.5396" y="186.8594"/></g><g><title>TopUtilizedModelsUseCase</title><rect fill="#FFFFFF" height="145.6641" style="stroke:#181818;stroke-width:1;" width="10" x="760.7988" y="245.125"/></g><g><title>TopUtilizedModelsService</title><rect fill="#FFFFFF" height="87.3984" style="stroke:#181818;stroke-width:1;" width="10" x="968.4634" y="274.2578"/></g><g><title>AircraftModelRepository</title><rect fill="#FFFFFF" height="29.1328" style="stroke:#181818;stroke-width:1;" width="10" x="1218.1978" y="303.3906"/></g><g class="message" data-entity-1="part1" data-entity-2="part2" id="msg1"><polygon fill="#181818" points="472.5396,145.7266,482.5396,149.7266,472.5396,153.7266,476.5396,149.7266" style="stroke:#181818;stroke-width:1;"/><line style="stroke:#181818;stroke-width:1;" x1="92.8633" x2="478.5396" y1="149.7266" y2="149.7266"/><text fill="#000000" font-family="sans-serif" font-size="13" font-weight="bold" lengthAdjust="spacing" textLength="9.0454" x="99.8633" y="144.6606">1</text><text fill="#000000" font-family="sans-serif" font-size="13" lengthAdjust="spacing" textLength="294.271" x="112.9087" y="144.6606">GET /aircraft-models/top5?criteria={criteria}</text></g><g class="message" data-entity-1="part2" data-entity-2="part2" id="msg2"><line style="stroke:#181818;stroke-width:1;" x1="494.5396" x2="541.5396" y1="173.8594" y2="173.8594"/><line style="stroke:#181818;stroke-width:1;" x1="541.5396" x2="541.5396" y1="173.8594" y2="186.8594"/><line style="stroke:#181818;stroke-width:1;" x1="500.5396" x2="541.5396" y1="186.8594" y2="186.8594"/><polygon fill="#181818" points="510.5396,182.8594,500.5396,186.8594,510.5396,190.8594,506.5396,186.8594" style="stroke:#181818;stroke-width:1;"/><text fill="#000000" font-family="sans-serif" font-size="13" font-weight="bold" lengthAdjust="spacing" textLength="9.0454" x="506.5396" y="168.7935">2</text><text fill="#000000" font-family="sans-serif" font-size="13" lengthAdjust="spacing" textLength="229.2139" x="519.585" y="168.7935">extract username &amp; roles from JWT</text></g><path d="M10,206.8594 L74.4429,206.8594 L74.4429,213.9922 L64.4429,223.9922 L10,223.9922 L10,206.8594" fill="#EEEEEE" style="stroke:#000000;stroke-width:1.5;"/><rect fill="none" height="295.2656" style="stroke:#000000;stroke-width:1.5;" width="1310.5874" x="10" y="206.8594"/><text fill="#000000" font-family="sans-serif" font-size="13" font-weight="bold" lengthAdjust="spacing" textLength="19.4429" x="25" y="219.9263">alt</text><text fill="#000000" font-family="sans-serif" font-size="11" font-weight="bold" lengthAdjust="spacing" textLength="324.7148" x="89.4429" y="219.0698">[User has authorization (Role: Backoffice Operator)]</text><g class="message" data-entity-1="part2" data-entity-2="part3" id="msg3"><polygon fill="#181818" points="748.7988,241.125,758.7988,245.125,748.7988,249.125,752.7988,245.125" style="stroke:#181818;stroke-width:1;"/><line style="stroke:#181818;stroke-width:1;" x1="499.5396" x2="754.7988" y1="245.125" y2="245.125"/><text fill="#000000" font-family="sans-serif" font-size="13" font-weight="bold" lengthAdjust="spacing" textLength="9.0454" x="506.5396" y="240.0591">3</text><text fill="#000000" font-family="sans-serif" font-size="13" lengthAdjust="spacing" textLength="108.437" x="519.585" y="240.0591">execute(criteria)</text></g><g class="message" data-entity-1="part3" data-entity-2="part4" id="msg4"><polygon fill="#181818" points="956.4634,270.2578,966.4634,274.2578,956.4634,278.2578,960.4634,274.2578" style="stroke:#181818;stroke-width:1;"/><line style="stroke:#181818;stroke-width:1;" x1="770.7988" x2="962.4634" y1="274.2578" y2="274.2578"/><text fill="#000000" font-family="sans-serif" font-size="13" font-weight="bold" lengthAdjust="spacing" textLength="9.0454" x="777.7988" y="269.1919">4</text><text fill="#000000" font-family="sans-serif" font-size="13" lengthAdjust="spacing" textLength="155.835" x="790.8442" y="269.1919">getTop5Models(criteria)</text></g><g class="message" data-entity-1="part4" data-entity-2="part5" id="msg5"><polygon fill="#181818" points="1206.1978,299.3906,1216.1978,303.3906,1206.1978,307.3906,1210.1978,303.3906" style="stroke:#181818;stroke-width:1;"/><line style="stroke:#181818;stroke-width:1;" x1="978.4634" x2="1212.1978" y1="303.3906" y2="303.3906"/><text fill="#000000" font-family="sans-serif" font-size="13" font-weight="bold" lengthAdjust="spacing" textLength="9.0454" x="985.4634" y="298.3247">5</text><text fill="#000000" font-family="sans-serif" font-size="13" lengthAdjust="spacing" textLength="207.689" x="998.5088" y="298.3247">findTop5UtilizedModels(criteria)</text></g><g class="message" data-entity-1="part5" data-entity-2="part4" id="msg6"><polygon fill="#181818" points="989.4634,328.5234,979.4634,332.5234,989.4634,336.5234,985.4634,332.5234" style="stroke:#181818;stroke-width:1;"/><line style="stroke:#181818;stroke-width:1;stroke-dasharray:2,2;" x1="983.4634" x2="1222.1978" y1="332.5234" y2="332.5234"/><text fill="#000000" font-family="sans-serif" font-size="13" font-weight="bold" lengthAdjust="spacing" textLength="9.0454" x="995.4634" y="327.4575">6</text><text fill="#000000" font-family="sans-serif" font-size="13" lengthAdjust="spacing" textLength="89.832" x="1008.5088" y="327.4575">topModelsList</text></g><g class="message" data-entity-1="part4" data-entity-2="part3" id="msg7"><polygon fill="#181818" points="781.7988,357.6563,771.7988,361.6563,781.7988,365.6563,777.7988,361.6563" style="stroke:#181818;stroke-width:1;"/><line style="stroke:#181818;stroke-width:1;stroke-dasharray:2,2;" x1="775.7988" x2="972.4634" y1="361.6563" y2="361.6563"/><text fill="#000000" font-family="sans-serif" font-size="13" font-weight="bold" lengthAdjust="spacing" textLength="9.0454" x="787.7988" y="356.5903">7</text><text fill="#000000" font-family="sans-serif" font-size="13" lengthAdjust="spacing" textLength="134.2275" x="800.8442" y="356.5903">return topModelsList</text></g><g class="message" data-entity-1="part3" data-entity-2="part2" id="msg8"><polygon fill="#181818" points="510.5396,386.7891,500.5396,390.7891,510.5396,394.7891,506.5396,390.7891" style="stroke:#181818;stroke-width:1;"/><line style="stroke:#181818;stroke-width:1;stroke-dasharray:2,2;" x1="504.5396" x2="764.7988" y1="390.7891" y2="390.7891"/><text fill="#000000" font-family="sans-serif" font-size="13" font-weight="bold" lengthAdjust="spacing" textLength="9.0454" x="516.5396" y="385.7231">8</text><text fill="#000000" font-family="sans-serif" font-size="13" lengthAdjust="spacing" textLength="134.2275" x="529.585" y="385.7231">return topModelsList</text></g><g class="message" data-entity-1="part2" data-entity-2="part1" id="msg9"><polygon fill="#181818" points="103.8633,431.0547,93.8633,435.0547,103.8633,439.0547,99.8633,435.0547" style="stroke:#181818;stroke-width:1;"/><line style="stroke:#181818;stroke-width:1;stroke-dasharray:2,2;" x1="97.8633" x2="483.5396" y1="435.0547" y2="435.0547"/><text fill="#000000" font-family="sans-serif" font-size="13" font-weight="bold" lengthAdjust="spacing" textLength="9.0454" x="109.8633" y="422.4224">9</text><text fill="#000000" font-family="sans-serif" font-size="13" lengthAdjust="spacing" textLength="47.7026" x="122.9087" y="414.856">200 OK</text><text fill="#000000" font-family="sans-serif" font-size="13" lengthAdjust="spacing" textLength="339.0283" x="122.9087" y="429.9888">[ { modelName, manufacturer, metricValue... }, ... ]</text></g><line style="stroke:#000000;stroke-width:1;stroke-dasharray:2,2;" x1="10" x2="1320.5874" y1="444.0547" y2="444.0547"/><text fill="#000000" font-family="sans-serif" font-size="11" font-weight="bold" lengthAdjust="spacing" textLength="217.0459" x="15" y="454.2651">[User does not have authorization]</text><g class="message" data-entity-1="part2" data-entity-2="part1" id="msg10"><polygon fill="#181818" points="103.8633,490.125,93.8633,494.125,103.8633,498.125,99.8633,494.125" style="stroke:#181818;stroke-width:1;"/><line style="stroke:#181818;stroke-width:1;stroke-dasharray:2,2;" x1="97.8633" x2="488.5396" y1="494.125" y2="494.125"/><text fill="#000000" font-family="sans-serif" font-size="13" font-weight="bold" lengthAdjust="spacing" textLength="18.0908" x="109.8633" y="481.4927">10</text><text fill="#000000" font-family="sans-serif" font-size="13" lengthAdjust="spacing" textLength="94.3262" x="131.9541" y="473.9263">403 Forbidden</text><text fill="#000000" font-family="sans-serif" font-size="13" lengthAdjust="spacing" textLength="345.5854" x="131.9541" y="489.0591">{ message: "Not authorized to perform this action" }</text></g><?plantuml-src XPFTQjj048Nlzoa6NPG4OiUayOsXBRNw0_s98RRQYwONOsbaBvLsrTcHQH8CVOW-OPua8yaYjN6fRgJT_MREsJC8Q_6kBfV4HgmK1CdyOdG90rZu2iQGY2ti7MNmsdBAc0jyzXaL0Hv-_u4v_Qp9fGHlBAuOIsDGks4gTeD2u9rkfE8PeYccFtoUMsLd5J7gPWGOO3ep5RBOr5Re1A9UfHM9lHFsHK4T6miN-xHQxFrrhf90CGPgyIJ-3pmdtgYX5jvzcmm5bzhXmCarLJvODNtRqitIcEaC1YzRLp21zsyNS8wxca7P2foBhyQlKhP2RF75VV-rDQQjUggcNyAQ5DI1s659y0pquXGWPr_2XwyBWuM0tevXhVgQyjgplKEnti79jQ8JE1BngG5zUgqaRfKehOLEUY-dfcNqJ8bT2egjI3IlSHVK8TnZMj4aeNXkNTRm-m7_LTUKCKdD3ZIKxlYJ3NBGi7Tv5ErzFiNsxuxTdPNK8KtWOZI2sSSRzmtkeHtDbMPy1YMwEjVOQoRM5GdRz0iMDGs7GzYUGVFwRemsfYxxpEj8d1STmeRsft14zNBq7DvvNjei8tVZL9f2m9MEAhhI7dsv_blYGIUMUov1rbRdcpOj8zWQSjaZ?></g></svg>