<svg xmlns="http://www.w3.org/2000/svg" xmlns:xlink="http://www.w3.org/1999/xlink" contentStyleType="text/css" data-diagram-type="CLASS" height="603px" preserveAspectRatio="none" style="width:1587px;height:603px;background:#FFFFFF;" version="1.1" viewBox="0 0 1587 603" width="1587px" zoomAndPan="magnify"><title>Register an aircraft instance - Class Diagram</title><defs/><g><g class="title" data-source-line="1"><text fill="#000000" font-family="sans-serif" font-size="14" font-weight="bold" lengthAdjust="spacing" textLength="354.5869" x="609.2065" y="22.9951">Register an aircraft instance - Class Diagram</text></g><!--cluster Aircraft Model Aggregate--><g class="cluster" data-entity="Aircraft Model Aggregate" data-source-line="3" data-uid="ent0002" id="cluster_Aircraft Model Aggregate"><path d="M1072.5,246.2969 L1274.0186,246.2969 A3.75,3.75 0 0 1 1276.5186,248.7969 L1283.5186,268.5938 L1577.5,268.5938 A2.5,2.5 0 0 1 1580,271.0938 L1580,358.7969 A2.5,2.5 0 0 1 1577.5,361.2969 L1072.5,361.2969 A2.5,2.5 0 0 1 1070,358.7969 L1070,248.7969 A2.5,2.5 0 0 1 1072.5,246.2969" fill="none" style="stroke:#000000;stroke-width:1.5;"/><line style="stroke:#000000;stroke-width:1.5;" x1="1070" x2="1283.5186" y1="268.5938" y2="268.5938"/><text fill="#000000" font-family="sans-serif" font-size="14" font-weight="bold" lengthAdjust="spacing" textLength="200.5186" x="1074" y="261.292">Aircraft Model Aggregate</text></g><!--cluster Aircraft Aggregate--><g class="cluster" data-entity="Aircraft Aggregate" data-source-line="9" data-uid="ent0004" id="cluster_Aircraft Aggregate"><path d="M8.5,43.2969 L157.2793,43.2969 A3.75,3.75 0 0 1 159.7793,45.7969 L166.7793,65.5938 L1043.5,65.5938 A2.5,2.5 0 0 1 1046,68.0938 L1046,593.7969 A2.5,2.5 0 0 1 1043.5,596.2969 L8.5,596.2969 A2.5,2.5 0 0 1 6,593.7969 L6,45.7969 A2.5,2.5 0 0 1 8.5,43.2969" fill="none" style="stroke:#000000;stroke-width:1.5;"/><line style="stroke:#000000;stroke-width:1.5;" x1="6" x2="166.7793" y1="65.5938" y2="65.5938"/><text fill="#000000" font-family="sans-serif" font-size="14" font-weight="bold" lengthAdjust="spacing" textLength="147.7793" x="10" y="58.292">Aircraft Aggregate</text></g><!--class AircraftModelRepository--><g class="entity" data-entity="AircraftModelRepository" data-source-line="4" data-uid="ent0003" id="entity_AircraftModelRepository"><rect fill="#F1F1F1" height="64.2969" rx="2.5" ry="2.5" style="stroke:#181818;stroke-width:0.5;" width="476.666" x="1086.5" y="281.2969"/><ellipse cx="1236.1934" cy="297.2969" fill="#B4A7E5" rx="11" ry="11" style="stroke:#181818;stroke-width:1;"/><path d="M1232.1152,293.0625 L1232.1152,290.9063 L1239.5059,290.9063 L1239.5059,293.0625 L1237.0371,293.0625 L1237.0371,301.1406 L1239.5059,301.1406 L1239.5059,303.2969 L1232.1152,303.2969 L1232.1152,301.1406 L1234.584,301.1406 L1234.584,293.0625 L1232.1152,293.0625 Z " fill="#000000"/><text fill="#000000" font-family="sans-serif" font-size="14" font-style="italic" lengthAdjust="spacing" textLength="168.7793" x="1256.6934" y="302.1436">AircraftModelRepository</text><line style="stroke:#181818;stroke-width:0.5;" x1="1087.5" x2="1562.166" y1="313.2969" y2="313.2969"/><line style="stroke:#181818;stroke-width:0.5;" x1="1087.5" x2="1562.166" y1="321.2969" y2="321.2969"/><ellipse cx="1097.5" cy="334.9453" fill="#84BE84" rx="3" ry="3" style="stroke:#038048;stroke-width:1;"/><text fill="#000000" font-family="sans-serif" font-size="14" lengthAdjust="spacing" textLength="450.666" x="1106.5" y="338.292">Optional&lt;AircraftModel&gt; findByModelName(String modelName)</text></g><!--class Aircraft--><g class="entity" data-entity="Aircraft" data-source-line="11" data-uid="ent0005" id="entity_Aircraft"><rect fill="#F1F1F1" height="170.3438" rx="2.5" ry="2.5" style="stroke:#181818;stroke-width:0.5;" width="554.1104" x="54" y="228.2969"/><ellipse cx="300.9688" cy="248.4297" fill="#ADD1B2" rx="11" ry="11" style="stroke:#181818;stroke-width:1;"/><path d="M303.9375,254.0703 Q303.3594,254.3672 302.7188,254.5078 Q302.0781,254.6641 301.375,254.6641 Q298.875,254.6641 297.5469,253.0234 Q296.2344,251.3672 296.2344,248.2422 Q296.2344,245.1172 297.5469,243.4609 Q298.875,241.8047 301.375,241.8047 Q302.0781,241.8047 302.7188,241.9609 Q303.375,242.1172 303.9375,242.4141 L303.9375,245.1328 Q303.3125,244.5547 302.7188,244.2891 Q302.125,244.0078 301.5,244.0078 Q300.1563,244.0078 299.4688,245.0859 Q298.7813,246.1484 298.7813,248.2422 Q298.7813,250.3359 299.4688,251.4141 Q300.1563,252.4766 301.5,252.4766 Q302.125,252.4766 302.7188,252.2109 Q303.3125,251.9297 303.9375,251.3516 L303.9375,254.0703 Z " fill="#000000"/><text fill="#000000" font-family="sans-serif" font-size="12" font-style="italic" lengthAdjust="spacing" textLength="39.1348" x="327.7378" y="244.4355">&#171;root&#187;</text><text fill="#000000" font-family="sans-serif" font-size="14" lengthAdjust="spacing" textLength="51.6729" x="321.4688" y="260.2607">Aircraft</text><line style="stroke:#181818;stroke-width:0.5;" x1="55" x2="607.1104" y1="268.5625" y2="268.5625"/><rect fill="none" height="6" style="stroke:#C82930;stroke-width:1;" width="6" x="62" y="279.2109"/><text fill="#000000" font-family="sans-serif" font-size="14" lengthAdjust="spacing" textLength="151.8057" x="74" y="285.5576">registration_id: String</text><rect fill="none" height="6" style="stroke:#C82930;stroke-width:1;" width="6" x="62" y="295.5078"/><text fill="#000000" font-family="sans-serif" font-size="14" lengthAdjust="spacing" textLength="184.1328" x="74" y="301.8545">manufacturing_date: Date</text><rect fill="none" height="6" style="stroke:#C82930;stroke-width:1;" width="6" x="62" y="311.8047"/><text fill="#000000" font-family="sans-serif" font-size="14" lengthAdjust="spacing" textLength="145.1475" x="74" y="318.1514">seating_capacity: int</text><rect fill="none" height="6" style="stroke:#C82930;stroke-width:1;" width="6" x="62" y="328.1016"/><text fill="#000000" font-family="sans-serif" font-size="14" lengthAdjust="spacing" textLength="148.4697" x="74" y="334.4482">status: AircraftStatus</text><rect fill="none" height="6" style="stroke:#C82930;stroke-width:1;" width="6" x="62" y="344.3984"/><text fill="#000000" font-family="sans-serif" font-size="14" lengthAdjust="spacing" textLength="166.5986" x="74" y="350.7451">last_maintenance: Date</text><rect fill="none" height="6" style="stroke:#C82930;stroke-width:1;" width="6" x="62" y="360.6953"/><text fill="#000000" font-family="sans-serif" font-size="14" lengthAdjust="spacing" textLength="234.8008" x="74" y="367.042">days_since_last_maintenance: int</text><line style="stroke:#181818;stroke-width:1;" x1="55" x2="607.1104" y1="374.3438" y2="374.3438"/><ellipse cx="65" cy="387.9922" fill="#84BE84" rx="3" ry="3" style="stroke:#038048;stroke-width:1;"/><text fill="#000000" font-family="sans-serif" font-size="14" lengthAdjust="spacing" textLength="528.1104" x="74" y="391.3389">Aircraft(registrationId, model, manufacturingDate, seatingCapacity, status)</text></g><!--class AircraftStatus--><g class="entity" data-entity="AircraftStatus" data-source-line="22" data-uid="ent0006" id="entity_AircraftStatus"><rect fill="#F1F1F1" height="105.1563" rx="2.5" ry="2.5" style="stroke:#181818;stroke-width:0.5;" width="171.8721" x="245" y="475.2969"/><ellipse cx="279.6146" cy="495.4297" fill="#EB937F" rx="11" ry="11" style="stroke:#181818;stroke-width:1;"/><path d="M283.7239,501.4297 L276.0052,501.4297 L276.0052,489.0391 L283.7239,489.0391 L283.7239,491.1953 L278.4583,491.1953 L278.4583,493.8672 L283.2239,493.8672 L283.2239,496.0234 L278.4583,496.0234 L278.4583,499.2734 L283.7239,499.2734 L283.7239,501.4297 Z " fill="#000000"/><text fill="#000000" font-family="sans-serif" font-size="12" font-style="italic" lengthAdjust="spacing" textLength="49.0957" x="321.5676" y="491.4355">&#171;enum&#187;</text><text fill="#000000" font-family="sans-serif" font-size="14" lengthAdjust="spacing" textLength="96.2842" x="297.9733" y="507.2607">AircraftStatus</text><line style="stroke:#181818;stroke-width:0.5;" x1="246" x2="415.8721" y1="515.5625" y2="515.5625"/><text fill="#000000" font-family="sans-serif" font-size="14" lengthAdjust="spacing" textLength="50.4561" x="251" y="532.5576">ACTIVE</text><text fill="#000000" font-family="sans-serif" font-size="14" lengthAdjust="spacing" textLength="65.0576" x="251" y="548.8545">INACTIVE</text><text fill="#000000" font-family="sans-serif" font-size="14" lengthAdjust="spacing" textLength="159.8721" x="251" y="565.1514">UNDER_MAINTENANCE</text><line style="stroke:#181818;stroke-width:0.5;" x1="246" x2="415.8721" y1="572.4531" y2="572.4531"/></g><!--class RegisterAircraftService--><g class="entity" data-entity="RegisterAircraftService" data-source-line="28" data-uid="ent0007" id="entity_RegisterAircraftService"><rect fill="#F1F1F1" height="72.5625" rx="2.5" ry="2.5" style="stroke:#181818;stroke-width:0.5;" width="1007.5859" x="22" y="78.2969"/><ellipse cx="440.7012" cy="98.4297" fill="#ADD1B2" rx="11" ry="11" style="stroke:#181818;stroke-width:1;"/><path d="M443.6699,104.0703 Q443.0918,104.3672 442.4512,104.5078 Q441.8105,104.6641 441.1074,104.6641 Q438.6074,104.6641 437.2793,103.0234 Q435.9668,101.3672 435.9668,98.2422 Q435.9668,95.1172 437.2793,93.4609 Q438.6074,91.8047 441.1074,91.8047 Q441.8105,91.8047 442.4512,91.9609 Q443.1074,92.1172 443.6699,92.4141 L443.6699,95.1328 Q443.0449,94.5547 442.4512,94.2891 Q441.8574,94.0078 441.2324,94.0078 Q439.8887,94.0078 439.2012,95.0859 Q438.5137,96.1484 438.5137,98.2422 Q438.5137,100.3359 439.2012,101.4141 Q439.8887,102.4766 441.2324,102.4766 Q441.8574,102.4766 442.4512,102.2109 Q443.0449,101.9297 443.6699,101.3516 L443.6699,104.0703 Z " fill="#000000"/><text fill="#000000" font-family="sans-serif" font-size="12" font-style="italic" lengthAdjust="spacing" textLength="109.541" x="487.2725" y="94.4355">&#171;Domain Service&#187;</text><text fill="#000000" font-family="sans-serif" font-size="14" lengthAdjust="spacing" textLength="161.6836" x="461.2012" y="110.2607">RegisterAircraftService</text><line style="stroke:#181818;stroke-width:0.5;" x1="23" x2="1028.5859" y1="118.5625" y2="118.5625"/><line style="stroke:#181818;stroke-width:1;" x1="23" x2="1028.5859" y1="126.5625" y2="126.5625"/><ellipse cx="33" cy="140.2109" fill="#84BE84" rx="3" ry="3" style="stroke:#038048;stroke-width:1;"/><text fill="#000000" font-family="sans-serif" font-size="14" lengthAdjust="spacing" textLength="981.5859" x="42" y="143.5576">registerAircraft(String registrationNumber, String modelName, int seatingCapacity, Date manufacturingDate, AircraftStatus status): Aircraft</text></g><!--class AircraftRepository--><g class="entity" data-entity="AircraftRepository" data-source-line="33" data-uid="ent0008" id="entity_AircraftRepository"><rect fill="#F1F1F1" height="80.5938" rx="2.5" ry="2.5" style="stroke:#181818;stroke-width:0.5;" width="352.6689" x="643.5" y="272.7969"/><ellipse cx="752.2119" cy="288.7969" fill="#B4A7E5" rx="11" ry="11" style="stroke:#181818;stroke-width:1;"/><path d="M748.1338,284.5625 L748.1338,282.4063 L755.5244,282.4063 L755.5244,284.5625 L753.0557,284.5625 L753.0557,292.6406 L755.5244,292.6406 L755.5244,294.7969 L748.1338,294.7969 L748.1338,292.6406 L750.6025,292.6406 L750.6025,284.5625 L748.1338,284.5625 Z " fill="#000000"/><text fill="#000000" font-family="sans-serif" font-size="14" font-style="italic" lengthAdjust="spacing" textLength="126.7451" x="772.7119" y="293.6436">AircraftRepository</text><line style="stroke:#181818;stroke-width:0.5;" x1="644.5" x2="995.1689" y1="304.7969" y2="304.7969"/><line style="stroke:#181818;stroke-width:1;" x1="644.5" x2="995.1689" y1="312.7969" y2="312.7969"/><ellipse cx="654.5" cy="326.4453" fill="#84BE84" rx="3" ry="3" style="stroke:#038048;stroke-width:1;"/><text fill="#000000" font-family="sans-serif" font-size="14" lengthAdjust="spacing" textLength="326.6689" x="663.5" y="329.792">boolean existsById(String registrationNumber)</text><ellipse cx="654.5" cy="342.7422" fill="#84BE84" rx="3" ry="3" style="stroke:#038048;stroke-width:1;"/><text fill="#000000" font-family="sans-serif" font-size="14" lengthAdjust="spacing" textLength="151.4912" x="663.5" y="346.0889">Aircraft save(Aircraft)</text></g><!--link RegisterAircraftService to Aircraft--><g class="link" data-entity-1="RegisterAircraftService" data-entity-2="Aircraft" data-source-line="39" data-uid="lnk9" id="link_RegisterAircraftService_Aircraft"><path codeLine="39" d="M490.69,151.3769 C469.39,172.8369 445.536,196.8776 418.866,223.7576" fill="none" id="RegisterAircraftService-to-Aircraft" style="stroke:#181818;stroke-width:1;stroke-dasharray:7,7;"/><polygon fill="#181818" points="414.64,228.0169,423.8185,224.4453,418.1616,224.4675,418.1395,218.8107,414.64,228.0169" style="stroke:#181818;stroke-width:1;"/><polygon fill="#000000" points="458.4781,193.4124,466.9354,189.062,462.7631,184.9219,458.4781,193.4124" style="stroke:#000000;stroke-width:1;"/><text fill="#000000" font-family="sans-serif" font-size="13" lengthAdjust="spacing" textLength="48.3247" x="471" y="194.3638">creates</text></g><!--link RegisterAircraftService to AircraftRepository--><g class="link" data-entity-1="RegisterAircraftService" data-entity-2="AircraftRepository" data-source-line="40" data-uid="lnk10" id="link_RegisterAircraftService_AircraftRepository"><path codeLine="40" d="M579.24,151.3769 C630.46,185.6069 702.7417,233.9226 755.8517,269.4226" fill="none" id="RegisterAircraftService-to-AircraftRepository" style="stroke:#181818;stroke-width:1;stroke-dasharray:7,7;"/><polygon fill="#181818" points="760.84,272.7569,755.5805,264.43,756.6831,269.9783,751.1348,271.081,760.84,272.7569" style="stroke:#181818;stroke-width:1;"/><polygon fill="#000000" points="655.1569,192.6417,649.2701,185.1721,646.0038,190.0588,655.1569,192.6417" style="stroke:#000000;stroke-width:1;"/><text fill="#000000" font-family="sans-serif" font-size="13" lengthAdjust="spacing" textLength="29.7832" x="660" y="194.3638">uses</text></g><!--link RegisterAircraftService to AircraftModelRepository--><g class="link" data-entity-1="RegisterAircraftService" data-entity-2="AircraftModelRepository" data-source-line="41" data-uid="lnk11" id="link_RegisterAircraftService_AircraftModelRepository"><path codeLine="41" d="M707.32,151.3469 C807.61,171.9269 934.21,199.4269 1046,228.2969 C1107.22,244.1069 1169.4537,262.7155 1222.9637,279.4555" fill="none" id="RegisterAircraftService-to-AircraftModelRepository" style="stroke:#181818;stroke-width:1;stroke-dasharray:7,7;"/><polygon fill="#181818" points="1228.69,281.2469,1221.2948,274.7422,1223.9181,279.754,1218.9062,282.3773,1228.69,281.2469" style="stroke:#181818;stroke-width:1;"/><polygon fill="#000000" points="927.8525,191.0689,919.7829,186.0357,918.3656,191.7402,927.8525,191.0689" style="stroke:#000000;stroke-width:1;"/><text fill="#000000" font-family="sans-serif" font-size="13" lengthAdjust="spacing" textLength="29.7832" x="932" y="194.3638">uses</text></g><!--link Aircraft to AircraftStatus--><g class="link" data-entity-1="Aircraft" data-entity-2="AircraftStatus" data-source-line="42" data-uid="lnk12" id="link_Aircraft_AircraftStatus"><path codeLine="42" d="M331,398.5869 C331,424.4269 331,446.0769 331,469.0669" fill="none" id="Aircraft-to-AircraftStatus" style="stroke:#181818;stroke-width:1;"/><polygon fill="#181818" points="331,475.0669,335,466.0669,331,470.0669,327,466.0669,331,475.0669" style="stroke:#181818;stroke-width:1;"/><polygon fill="#000000" points="336,441.8633,338.9389,432.8182,333.0611,432.8182,336,441.8633" style="stroke:#000000;stroke-width:1;"/><text fill="#000000" font-family="sans-serif" font-size="13" lengthAdjust="spacing" textLength="22.9785" x="345" y="441.3638">has</text></g><!--SRC=[bLHDRwCm4BtpAqOzfIhq1o24H9CSE9HAQNUlQ0eEQnNio3RLeYh_VMq7y-6agrqV4etzFFFUcp6AgfR0WJHKAY806I0LbS2Z0igaGbOHY63RefImezW8x8BWXDK7DWJkCeTzvZLf8MiQGHfKv0w-0j2BCftqY3g7GrhWWPouf8gBOSIPzG0l9qKvmpPPWLCuKbO_3JOei2ERLoKeQw1p6_Ssnpauts8sS_eABAwoMgRp916SgpITYUWLWR2E23ICIbh7S2cw1dN8UgrEzUQeh7MH67RwTusIH6VHvnLgTbGDiR75WoXKlOmdLgysNcCqRLLsQ2nbfYstIjKuo59IVLfUm_sgKRGC7rpjpL9wNeSNdyErM5CwTCgsex1mrE7wOVy8wpjFb_RSxARfellPzYt_kP_2lF0sVXIx_Q5yplBYRLzanNQ_h75fgHlYgHWHdrIFNfBik342nWs_rvuFmalZncrfIz5txqI4u4zYQ4o-jiMuTSi_pvRHlNaC5XglNzByYFug1zuvRub-r-ItfY-VXhp-Nj7z-khqI2H-aesBB6Xq_ZlF7n_J-NOCbT2M40dfFrzQV29YwEL_tVM_CQi44wieIlq6nF0B3Uxy1m00]--></g></svg>